<?xml version="1.0" encoding="utf-8"?>
<!-- Generator: Adobe Illustrator 25.0.0, SVG Export Plug-In . SVG Version: 6.00 Build 0)  -->
<svg version="1.1" xmlns="http://www.w3.org/2000/svg" xmlns:xlink="http://www.w3.org/1999/xlink" x="0px" y="0px"
	 viewBox="0 0 201.11 278.62" style="enable-background:new 0 0 201.11 278.62;" xml:space="preserve">
<style type="text/css">
	.st0{display:none;}
	.st1{display:inline;}
	.st2{fill:#603913;}
	.st3{fill:#FAC99C;}
	.st4{fill:#EFAB88;}
	.st5{fill:#FFFFFF;}
	.st6{fill:#C49A6C;}
	.st7{fill:#8B5E3C;}
	.st8{fill:#F48CA8;}
	.st9{fill:#43682D;}
	.st10{stroke:#B18417;stroke-miterlimit:10;}
	.st11{stroke:#A5811C;stroke-miterlimit:10;}
	.st12{fill:#E5AABC;}
	.st13{display:inline;fill:#8B5E3C;}
	.st14{fill:none;stroke:#000000;stroke-miterlimit:10;}
	.st15{fill:#FFFFFF;stroke:#000000;stroke-miterlimit:10;}
</style>
<g id="original" class="st0">
	<g class="st1">
		<g>
			<path class="st2" d="M44.05,146.57c0,0-6.45,90.54,0,94.17c6.45,3.63,114.49,10.72,119.72,4.52c5.23-6.2,12.46-119.92-3.17-136.5
				C144.98,92.19,44.05,146.57,44.05,146.57"/>
			<path class="st3" d="M163.77,245.26c-43.99,5.64-41.26-53.71-41.26-53.71c-9.23,6.18-19.75,8.54-25.91,9.44
				c-6.16-0.9-16.69-3.26-25.91-9.44c0,0,2.73,59.36-41.27,53.71c-44-5.64-44.72,30.48-24.77,55.1h86.68h10.53h86.68
				C208.5,275.74,207.77,239.62,163.77,245.26"/>
			<path class="st3" d="M161.08,119.07c0,45.54-27.4,82.46-61.19,82.46c-33.8,0-61.19-36.92-61.19-82.46S66.09,36.6,99.88,36.6
				C133.68,36.6,161.08,73.52,161.08,119.07"/>
			<path class="st2" d="M84.77,108.77l4.57-2.54c0,0-20.94-13.99-37.31-2.33C52.03,103.9,72.97,99.81,84.77,108.77"/>
			<path class="st2" d="M70.68,65.93c0,0,18.66,55.14,86.57,32.42c0,0,25.37,126.54-20.15,180.27c0,0,60.72-31.6,61.94-126.12
				c0.9-70.15-19.35-130.97-83.53-145.15C51.33-6.83-3.94,88.32,5.76,157.72c9.7,69.4,26.12,107.46,57.46,120.89
				C63.22,278.62,15.46,97.27,70.68,65.93"/>
			<path class="st4" d="M97.08,140.28c0,0-9.79,8.67,3.64,12.59C100.72,152.87,94,148.95,97.08,140.28"/>
			<path class="st5" d="M84.77,122.09c0,0-4.2-14.55-28.54-6.72C56.22,115.37,57.62,131.6,84.77,122.09"/>
			<path class="st2" d="M78.47,119.07c0,3.61-3.57,6.54-7.97,6.54c-4.4,0-7.97-2.93-7.97-6.54c0-3.61,3.57-6.54,7.97-6.54
				C74.9,112.52,78.47,115.45,78.47,119.07"/>
			<path class="st5" d="M75.25,117.36c0,0.94-1.02,1.71-2.28,1.71c-1.26,0-2.29-0.76-2.29-1.71c0-0.94,1.02-1.71,2.29-1.71
				C74.23,115.65,75.25,116.41,75.25,117.36"/>
			<path class="st6" d="M84.77,122.09c0,0,0-18.91-30.78-9.03l-1.96,2.6C52.03,115.65,80.29,108.1,84.77,122.09"/>
			<path class="st2" d="M120.08,112.48l-4.57-2.54c0,0,20.94-13.99,37.31-2.33C152.82,107.61,131.88,103.52,120.08,112.48"/>
			<path class="st5" d="M120.08,125.8c0,0,4.2-14.55,28.54-6.72C148.63,119.08,147.23,135.31,120.08,125.8"/>
			<path class="st2" d="M126.39,122.78c0,3.61,3.57,6.54,7.97,6.54c4.4,0,7.97-2.93,7.97-6.54s-3.57-6.54-7.97-6.54
				C129.95,116.23,126.39,119.16,126.39,122.78"/>
			<path class="st5" d="M129.6,121.07c0,0.94,1.02,1.71,2.28,1.71c1.26,0,2.29-0.77,2.29-1.71c0-0.94-1.02-1.71-2.29-1.71
				C130.62,119.36,129.6,120.13,129.6,121.07"/>
			<path class="st6" d="M120.08,125.8c0,0,0-18.91,30.78-9.03l1.96,2.6C152.82,119.36,124.56,111.81,120.08,125.8"/>
			<path class="st7" d="M97.18,80.11c0,0,16.98,30.22,48.88,15.11C146.06,95.22,114.34,99.14,97.18,80.11"/>
			<path class="st7" d="M120.08,82.91c0,0,37.73,22.39,52.28,0C172.36,82.91,156.8,96.34,120.08,82.91"/>
			<path class="st7" d="M39.86,102.97c0,0-21.41,131.06,16.36,164.08C56.22,267.05,29.48,175.75,39.86,102.97"/>
			<path class="st7" d="M169,161.02c0,0,5.7,80.85-16.18,101.56C152.82,262.57,193.63,246.96,169,161.02"/>
			<path class="st4" d="M70.68,191.55c0,0,13.91,8.49,23.13,8.89c9.22,0.4,28.13-3.01,29.48-6.36c0,0-0.93,18.67,5.25,31.29
				c0,0-42.6,11.1-58.98-17.28L70.68,191.55z"/>
			<path class="st5" d="M84.75,165.31l29.07,2.03c0,0,1.63,0.86-3.78,5.42C104.64,177.31,89.68,179.61,84.75,165.31"/>
			<path class="st8" d="M84.75,165.31c0,0,7.15-0.71,10.37-3.67c2.4-2.21,4.39,2.16,5.53,2.35c1.14,0.19,2.99-1.21,4.61-1.98
				c1.62-0.78,3.4,2.02,4.73,2.89c4.16,2.74,4.16,2.74,5,2.67C115.83,167.5,95.79,169.73,84.75,165.31"/>
			<path class="st8" d="M84.75,165.31c0,0,14,17.38,30.23,2.26c0,0-4.28,14.41-17.81,12.45C83.65,178.06,86.28,167.39,84.75,165.31"
				/>
			<path class="st4" d="M176.9,253.65c0,0,21.02,3.33,14.67,20.49C191.58,274.14,188.17,261.66,176.9,253.65"/>
		</g>
	</g>
</g>
<g id="Layer_1_copy" class="st0">
	<g class="st1">
		<path class="st2" d="M44.05,146.57c0,0-6.45,90.54,0,94.17c6.45,3.63,114.49,10.72,119.72,4.52c5.23-6.2,12.46-119.92-3.17-136.5
			C144.98,92.19,44.05,146.57,44.05,146.57"/>
		<path class="st3" d="M163.77,245.26c-43.99,5.64-41.26-53.71-41.26-53.71c-9.23,6.18-19.75,8.54-25.91,9.44
			c-6.16-0.9-16.69-3.26-25.91-9.44c0,0,2.73,59.36-41.27,53.71c-44-5.64-44.72,30.48-24.77,55.1h86.68h10.53h86.68
			C208.5,275.74,207.77,239.62,163.77,245.26"/>
		<path class="st3" d="M161.08,119.07c0,45.54-27.4,82.46-61.19,82.46c-33.8,0-61.19-36.92-61.19-82.46S66.09,36.6,99.88,36.6
			C133.68,36.6,161.08,73.52,161.08,119.07"/>
		<path class="st2" d="M84.77,108.77l4.57-2.54c0,0-20.94-13.99-37.31-2.33C52.03,103.9,72.97,99.81,84.77,108.77"/>
		<path class="st2" d="M70.68,65.93c0,0,18.66,55.14,86.57,32.42c0,0,25.37,126.54-20.15,180.27c0,0,60.72-31.6,61.94-126.12
			c0.9-70.15-19.35-130.97-83.53-145.15C51.33-6.83-3.94,88.32,5.76,157.72c9.7,69.4,26.12,107.46,57.46,120.89
			C63.22,278.62,15.46,97.27,70.68,65.93"/>
		<path class="st4" d="M97.08,140.28c0,0-9.79,8.67,3.64,12.59C100.72,152.87,94,148.95,97.08,140.28"/>
		<path class="st5" d="M84.77,122.09c0,0-4.2-14.55-28.54-6.72C56.22,115.37,57.62,131.6,84.77,122.09"/>
		<path class="st9" d="M78.65,119.36c0,3.61-3.57,6.54-7.97,6.54c-4.4,0-7.97-2.93-7.97-6.54c0-3.61,3.57-6.54,7.97-6.54
			C75.08,112.82,78.65,115.75,78.65,119.36"/>
		<path class="st10" d="M73.73,119.36c0,1.38-1.36,2.5-3.04,2.5c-1.68,0-3.04-1.12-3.04-2.5c0-1.38,1.36-2.5,3.04-2.5
			C72.36,116.86,73.73,117.98,73.73,119.36"/>
		<path class="st5" d="M75.25,117.36c0,0.94-1.02,1.71-2.28,1.71c-1.26,0-2.29-0.76-2.29-1.71c0-0.94,1.02-1.71,2.29-1.71
			C74.23,115.65,75.25,116.41,75.25,117.36"/>
		<path class="st6" d="M84.77,122.09c0,0,0-18.91-30.78-9.03l-1.96,2.6C52.03,115.65,80.29,108.1,84.77,122.09"/>
		<path class="st2" d="M120.08,112.48l-4.57-2.54c0,0,20.94-13.99,37.31-2.33C152.82,107.61,131.88,103.52,120.08,112.48"/>
		<path class="st5" d="M120.08,125.8c0,0,4.2-14.55,28.54-6.72C148.63,119.08,147.23,135.31,120.08,125.8"/>
		<path class="st9" d="M126.39,122.78c0,3.61,3.57,6.54,7.97,6.54c4.4,0,7.97-2.93,7.97-6.54s-3.57-6.54-7.97-6.54
			C129.95,116.23,126.39,119.16,126.39,122.78"/>
		<path class="st11" d="M131.36,122.78c0,1.36,1.34,2.46,3,2.46c1.66,0,3-1.1,3-2.46s-1.34-2.46-3-2.46
			C132.7,120.31,131.36,121.42,131.36,122.78"/>
		<path class="st5" d="M129.6,121.07c0,0.94,1.02,1.71,2.28,1.71c1.26,0,2.29-0.77,2.29-1.71c0-0.94-1.02-1.71-2.29-1.71
			C130.62,119.36,129.6,120.13,129.6,121.07"/>
		<path class="st6" d="M120.08,125.8c0,0,0-18.91,30.78-9.03l1.96,2.6C152.82,119.36,124.56,111.81,120.08,125.8"/>
		<path class="st7" d="M97.18,80.11c0,0,16.98,30.22,48.88,15.11C146.06,95.22,114.34,99.14,97.18,80.11"/>
		<path class="st7" d="M120.08,82.91c0,0,37.73,22.39,52.28,0C172.36,82.91,156.8,96.34,120.08,82.91"/>
		<path class="st7" d="M39.86,102.97c0,0-21.41,131.06,16.36,164.08C56.22,267.05,29.48,175.75,39.86,102.97"/>
		<path class="st7" d="M169,161.02c0,0,5.7,80.85-16.18,101.56C152.82,262.57,193.63,246.96,169,161.02"/>
		<path class="st4" d="M70.68,191.55c0,0,13.91,8.49,23.13,8.89c9.22,0.4,28.13-3.01,29.48-6.36c0,0-0.93,18.67,5.25,31.29
			c0,0-42.6,11.1-58.98-17.28L70.68,191.55z"/>
		<path class="st5" d="M84.75,165.31l29.07,2.03c0,0,1.63,0.86-3.78,5.42C104.64,177.31,89.68,179.61,84.75,165.31"/>
		<path class="st12" d="M84.75,165.31c0,0,7.15-0.71,10.37-3.67c2.4-2.21,4.39,2.16,5.53,2.35c1.14,0.19,2.99-1.21,4.61-1.98
			c1.62-0.78,3.4,2.02,4.73,2.89c4.16,2.74,4.16,2.74,5,2.67C115.83,167.5,95.79,169.73,84.75,165.31"/>
		<path class="st12" d="M84.75,165.31c0,0,14,17.38,30.23,2.26c0,0-4.28,14.41-17.81,12.45C83.65,178.06,86.28,167.39,84.75,165.31"
			/>
		<path class="st4" d="M176.9,253.65c0,0,21.02,3.33,14.67,20.49C191.58,274.14,188.17,261.66,176.9,253.65"/>
	</g>
	<path class="st13" d="M162.4,99.26c0,0,5.7,80.85-16.18,101.56C146.22,200.81,187.03,185.2,162.4,99.26"/>
	<path class="st13" d="M56.22,58.6c0,0-59.77,118.58-33.65,161.42C22.58,220.02,24.47,124.9,56.22,58.6"/>
</g>
<g id="Layer_1_copy_2">
	<g>
		<path class="st14" d="M29.42,245.26c-44-5.64-44.72,30.48-24.77,55.1h86.68h10.53h86.68c18.58-22.94,19.23-55.84-16.31-55.69"/>
		<path class="st14" d="M154.72,245.55c-34.2-2.69-29.74-50.67-29.74-50.67c-9.23,6.18-23.12,6.65-28.38,6.11
			c-6.19-0.63-16.69-3.26-25.91-9.44c0,0,1.53,33.28-16.17,47.63"/>
		<path class="st14" d="M160.68,120.31c0,45.54-24.67,81.21-60.79,81.21c-24.76,0-46.08-19.81-55.72-48.32"/>
		<path class="st14" d="M84.77,108.77l4.57-2.54c0,0-20.94-13.99-37.31-2.33C52.03,103.9,72.97,99.81,84.77,108.77z"/>
		<path class="st14" d="M70.68,65.93c0,0,18.66,55.14,86.57,32.42c0,0,25.37,126.54-20.15,180.27c0,0,60.72-31.6,61.94-126.12
			c0.9-70.15-19.35-130.97-83.53-145.15C51.33-6.83-3.94,88.32,5.76,157.72c9.7,69.4,26.12,107.46,57.46,120.89
			C63.22,278.62,15.46,97.27,70.68,65.93z"/>
		<path class="st14" d="M97.08,140.28c0,0-11.46,10.13,3.64,12.59C100.72,152.87,94,148.95,97.08,140.28z"/>
		<path class="st14" d="M84.77,122.09c0,0-4.2-14.55-28.54-6.72C56.22,115.37,57.62,131.6,84.77,122.09z"/>
		<path class="st14" d="M78.65,119.36c0,3.61-3.75,5.71-8.16,5.71c-4.4,0-7.78-2.1-7.78-5.71c0-3.61,3.57-6.54,7.97-6.54
			C75.08,112.82,78.65,115.75,78.65,119.36"/>
		<path d="M73.73,119.36c0,1.38-1.36,2.5-3.04,2.5c-1.68,0-3.04-1.12-3.04-2.5c0-1.38,1.36-2.5,3.04-2.5
			C72.36,116.86,73.73,117.98,73.73,119.36"/>
		<path class="st15" d="M75.25,117.36c0,0.94-1.02,1.71-2.28,1.71c-1.26,0-2.29-0.76-2.29-1.71c0-0.94,1.02-1.71,2.29-1.71
			C74.23,115.65,75.25,116.41,75.25,117.36"/>
		<path class="st14" d="M84.77,122.09c0,0,0-18.91-30.78-9.03l-1.96,2.6C52.03,115.65,80.29,108.1,84.77,122.09"/>
		<path class="st14" d="M120.08,112.48l-4.57-2.54c0,0,20.94-13.99,37.31-2.33C152.82,107.61,131.88,103.52,120.08,112.48z"/>
		<path class="st14" d="M120.08,125.8c0,0,4.2-14.55,28.54-6.72C148.63,119.08,147.23,135.31,120.08,125.8z"/>
		<path class="st14" d="M126.39,122.78c0,3.61,3.57,6.01,7.97,6.01c4.4,0,7.97-2.39,7.97-6.01s-4.46-5.92-8.86-5.92
			C129.07,116.86,126.39,119.16,126.39,122.78"/>
		<path d="M131.36,122.78c0,1.36,1.34,2.46,3,2.46c1.66,0,3-1.1,3-2.46s-1.34-2.46-3-2.46C132.7,120.31,131.36,121.42,131.36,122.78
			"/>
		<path class="st15" d="M129.6,121.07c0,0.94,1.02,1.71,2.28,1.71c1.26,0,2.29-0.77,2.29-1.71c0-0.94-1.02-1.71-2.29-1.71
			C130.62,119.36,129.6,120.13,129.6,121.07"/>
		<path class="st14" d="M120.08,125.8c0,0,0-18.91,30.78-9.03l1.96,2.6C152.82,119.36,124.56,111.81,120.08,125.8"/>
		<path class="st14" d="M97.18,80.11c0,0,16.98,30.22,48.88,15.11C146.06,95.22,114.34,99.14,97.18,80.11"/>
		<path class="st14" d="M120.08,82.91c0,0,37.73,22.39,52.28,0C172.36,82.91,156.8,96.34,120.08,82.91"/>
		<path class="st14" d="M39.86,102.97c0,0-21.41,131.06,16.36,164.08C56.22,267.05,29.48,175.75,39.86,102.97"/>
		<path class="st14" d="M169,161.02c0,0,5.7,80.85-16.18,101.56C152.82,262.57,193.63,246.96,169,161.02"/>
		<path class="st14" d="M85.34,163.92c0,0,5.91-1.13,9.78-2.28c3.13-0.94,4.39,2.16,5.53,2.35c1.14,0.19,2.99-1.21,4.61-1.98
			c1.62-0.78,3.33,2.14,4.73,2.89c5,2.67,5.53,2.03,5,2.67C112.58,170.46,85.39,169.84,85.34,163.92z"/>
		<path class="st14" d="M114.39,169.16c0,0-3.55,11.02-17.21,10.86c-13.98-0.16-12.81-16.28-11.84-16.09
			C85.34,163.92,92.91,186.45,114.39,169.16z"/>
		<path class="st14" d="M176.9,253.65c0,0,21.02,3.33,14.67,20.49C191.58,274.14,188.17,261.66,176.9,253.65"/>
	</g>
</g>
</svg>
